<svg width="1440" height="109" viewBox="0 0 1440 109" fill="none" xmlns="http://www.w3.org/2000/svg">
<path id="honey-wave" fill-rule="evenodd" clip-rule="evenodd" d="M0 53.6169C21.8524 47.4886 75.4898 44.9999 99 44.9999C157.776 44.9998 217.527 64.6411 265 75.8762C303.43 84.9713 473.142 77.5104 514.737 75.8762C561.456 73.493 666.097 37.9393 709.5 26.4999C763.754 12.2006 853.429 57.0657 921.247 56.0443C989.065 55.0229 1056 61.5 1106 51.7947C1156 42.0894 1212.53 -7.19233 1260 2.00002C1296.17 9.00372 1314.68 32.584 1330.5 42.5C1346.32 52.416 1361.86 56.3337 1384 62C1406.14 67.6663 1430.96 56.7117 1440 53.6475C1440 64.2698 1440 71.6919 1440 74.0751C1431.6 75.8813 1416.35 89.6019 1401 92C1365.01 97.6227 1297.7 48.9615 1247.09 51.0864C1196.47 53.2112 1154.42 70.7481 1106 79.4999C1057.58 88.2516 981.354 68.0833 921.247 69.4999C861.14 70.9164 798.544 61.2083 759 60.5C719.456 59.7917 707.544 75.2087 668 82.9999C628.456 90.791 546.409 103 512.5 103C492.155 103 396.956 113.32 321.5 105C246.044 96.6801 125.627 93.5833 103.482 92.1667C81.3375 90.7502 13.5636 64.852 0 75.0658C0 63.6263 0 56.0001 0 53.6169Z" fill="#FEDD64"/>
</svg>
