<svg width="1434" height="87" viewBox="0 0 1434 87" fill="none" xmlns="http://www.w3.org/2000/svg">
<path d="M155.73 53.9327C87.7494 43.0151 27.1614 43.6267 0.345722 52.6226L0 35.6538C3.83081 34.5054 14.3017 31.175 25.5387 27.0408C39.585 21.8729 82.5326 18.309 114.456 21.1801C146.379 24.0511 287.409 35.7847 339.763 49.5657C392.118 63.3466 476.063 56.1487 557.787 53.2776C639.511 50.4066 733.816 35.6886 763.185 27.0755C792.555 18.4624 865.086 0 929.738 0C980.681 0 1038.51 12.8827 1053.07 17.6864C1067.64 22.4886 1174.36 29.3074 1201.17 32.7527C1227.99 36.1979 1264.81 49.8141 1303.15 52.6226C1362.69 56.9854 1425.63 49.1398 1434 49.1398C1434 53.6555 1433.4 60.31 1433.28 65.7237C1398.8 66.8721 1322.91 67.0055 1292.26 66.0867C1253.95 64.9383 1204.68 48.8155 1181.27 47.6005C1148.07 45.8779 1071.35 40.2475 1029.21 30.486C987.072 20.7245 971.139 13.3436 934.108 15.0662C897.077 16.7888 775.884 43.8637 735.022 57.6447C694.16 71.4256 629.636 81.4933 570.897 84.9386C512.158 88.3838 457.273 87.5588 415.513 82.1C337.028 71.8405 199.038 60.8879 155.73 53.9327Z" fill="#FEDD64"/>
</svg>
