<svg width="1434" height="87" viewBox="0 0 1434 87" fill="none" xmlns="http://www.w3.org/2000/svg">
<path d="M251.5 49.5657C183.519 38.6481 27.1614 43.6267 0.345722 52.6226L0 35.6538C3.83081 34.5054 14.3017 31.175 25.5387 27.0408C39.585 21.8729 82.5326 18.309 114.456 21.1801C146.379 24.0511 349 59 391.5 66C444.918 74.7983 487.5 74.5 557.787 53.2776C636.07 29.6407 733.63 30.6131 763 22C792.37 13.3869 865.086 0 929.738 0C980.681 0 1082.93 13.6963 1097.5 18.5C1112.06 23.3022 1197.9 7.29178 1222.5 18.5C1267.5 39 1290.67 44.792 1329 47.6005C1388.55 51.9633 1425.63 49.1398 1434 49.1398C1434 53.6555 1433.4 60.31 1433.28 65.7237C1398.8 66.8721 1329.65 75.9187 1299 75C1260.69 73.8516 1204.68 48.8155 1181.27 47.6005C1148.07 45.8779 1093.64 54.2615 1051.5 44.5C1009.36 34.7385 970.531 20.2774 933.5 22C896.469 23.7226 809.362 26.2191 768.5 40C727.638 53.7809 629.636 81.4933 570.897 84.9386C512.158 88.3838 457.273 87.5588 415.513 82.1C337.028 71.8405 294.808 56.5209 251.5 49.5657Z" fill="#FEDD64"/>
</svg>
