<svg width="1440" height="81" viewBox="0 0 1440 81" fill="none" xmlns="http://www.w3.org/2000/svg">
<path id="honey-wave" fill-rule="evenodd" clip-rule="evenodd" d="M0 39.617C21.8524 33.4888 76.1242 55.4943 99.6344 55.4943C158.41 55.4942 313.835 28.6844 361.307 39.9195C399.737 49.0146 473.142 63.5106 514.737 61.8763C561.456 59.4931 653.235 34.3602 696.638 22.9207C750.893 8.62143 853.429 43.0658 921.247 42.0444C989.065 41.023 1149.02 24.3374 1180.65 15.8379C1212.29 7.33848 1236 -6.10353 1283.47 3.08883C1319.64 10.0925 1315.1 5.92199 1330.92 15.838C1346.74 25.7539 1348.32 32.8368 1370.46 38.5031C1392.61 44.1693 1430.96 42.7118 1440 39.6477C1440 50.27 1440 57.692 1440 60.0752C1431.6 61.8814 1416.8 61.89 1401.45 64.2881C1365.46 69.9108 1297.7 34.9616 1247.09 37.0865C1196.47 39.2113 1145.24 34.7093 1096.82 43.461C1048.41 52.2128 981.354 62.5846 921.247 64.0012C861.14 65.4178 799.452 38.503 759.908 37.7947C720.365 37.0864 676.076 52.6686 636.532 60.4598C596.988 68.2509 545.483 81 511.574 81C491.228 81 398.333 61.5173 322.877 53.1974C247.421 44.8775 125.627 79.5834 103.482 78.1669C81.3375 76.7503 13.5636 50.8522 0 61.0659C0 49.6265 0 42.0002 0 39.617Z" fill="#FEDD64"/>
</svg>
