<?xml version="1.0" standalone="no"?>
<!DOCTYPE svg PUBLIC "-//W3C//DTD SVG 20010904//EN"
 "http://www.w3.org/TR/2001/REC-SVG-20010904/DTD/svg10.dtd">
<svg version="1.0" xmlns="http://www.w3.org/2000/svg"
 width="283.000000pt" height="283.000000pt" viewBox="0 0 283.000000 283.000000"
 preserveAspectRatio="xMidYMid meet">
<metadata>
Created by potrace 1.14, written by Peter Selinger 2001-2017
</metadata>
<g transform="translate(0.000000,283.000000) scale(0.100000,-0.100000)"
fill="#000000" stroke="none">
<path d="M795 2208 c-54 -30 -153 -152 -240 -297 l-39 -65 -12 55 c-7 30 -13
68 -14 84 -1 63 -29 138 -64 174 -33 33 -39 35 -105 35 -93 1 -98 -5 -79 -91
18 -83 15 -236 -6 -324 -8 -35 -17 -91 -21 -124 -7 -71 -39 -338 -61 -515 -26
-201 -5 -294 72 -326 18 -8 35 -18 39 -24 14 -23 62 -10 88 23 68 89 93 199
102 449 8 200 44 383 95 492 22 47 55 105 73 128 18 24 44 61 60 84 15 22 41
54 57 69 49 47 55 29 54 -158 0 -175 -20 -370 -60 -585 -43 -230 -36 -265 55
-294 60 -19 81 -13 81 26 0 11 6 33 14 47 7 15 22 51 31 80 10 30 26 70 35 89
10 19 30 77 44 129 38 133 192 448 252 514 46 52 78 76 102 77 15 0 15 -1 -48
-225 -146 -515 -176 -675 -167 -872 4 -82 10 -112 31 -159 37 -82 71 -122 122
-146 42 -21 45 -21 97 -5 42 13 67 30 113 80 33 34 78 91 100 126 21 35 57 85
80 110 50 57 99 126 149 211 21 36 61 90 89 121 28 31 69 81 91 112 l40 57 62
0 c34 0 94 7 134 15 40 9 74 14 76 11 2 -2 -3 -44 -11 -92 -33 -199 -40 -322
-24 -430 13 -87 21 -111 62 -182 52 -90 66 -99 140 -88 40 6 44 10 49 41 3 18
1 73 -5 122 -15 117 -15 390 0 532 14 129 24 149 100 182 23 10 42 25 42 33 0
44 -29 58 -72 35 -11 -6 -22 -8 -25 -6 -2 3 3 40 12 83 12 53 16 97 12 143 -4
42 -1 91 8 136 8 38 15 80 15 93 0 54 -70 144 -127 163 -41 13 -47 10 -77 -52
-29 -57 -124 -194 -201 -289 -29 -36 -60 -81 -69 -100 -8 -19 -46 -89 -83
-154 l-68 -119 -58 -12 c-68 -14 -97 -36 -81 -63 6 -9 23 -18 37 -20 26 -3 25
-4 -42 -114 -38 -60 -75 -118 -82 -127 -8 -9 -25 -34 -38 -56 -13 -22 -42 -61
-63 -87 -21 -26 -44 -62 -50 -80 -27 -80 -122 -198 -159 -198 -32 0 -49 56
-48 162 1 98 10 173 27 223 6 17 15 62 21 100 5 39 21 108 36 155 55 172 95
420 95 588 0 43 -6 73 -20 99 -11 21 -20 43 -20 48 0 30 -100 90 -133 80 -7
-2 -25 -6 -41 -10 -65 -14 -199 -176 -301 -360 -21 -38 -43 -77 -49 -86 -8
-12 -11 29 -11 160 l0 176 -34 69 c-26 53 -43 74 -79 97 -49 31 -75 35 -107
17z m1622 -270 c-4 -40 -20 -140 -36 -223 -16 -82 -32 -166 -35 -187 -5 -29
-13 -38 -37 -47 -38 -13 -198 -35 -206 -28 -5 5 111 235 188 372 36 65 119
185 127 185 3 0 2 -33 -1 -72z"/>
</g>
</svg>
