<svg width="321" height="42" viewBox="0 0 321 42" fill="none" xmlns="http://www.w3.org/2000/svg">
<path id="honey-wave" fill-rule="evenodd" clip-rule="evenodd" d="M0.5 20.6024C5.3561 17.5611 17.4165 28.4818 22.641 28.4818C35.7022 28.4817 70.2411 15.1769 80.7905 20.7525C89.3306 25.2661 105.643 32.46 114.886 31.649C125.268 30.4663 145.663 17.9936 155.309 12.3165C167.365 5.22019 190.151 22.3139 205.222 21.807C220.292 21.3001 255.838 13.0195 262.868 8.80152C269.898 4.5835 275.166 -2.08736 285.715 2.47453C293.753 5.95025 292.745 3.88054 296.26 8.80154C299.775 13.7225 300.127 17.2375 305.048 20.0495C309.969 22.8615 318.491 22.1382 320.5 20.6176C320.5 25.8891 320.5 29.5724 320.5 30.7551C318.634 31.6515 315.345 31.6558 311.933 32.8459C303.935 35.6362 288.879 18.292 277.631 19.3465C266.383 20.401 254.997 18.1668 244.238 22.51C233.479 26.8533 218.579 32.0005 205.222 32.7035C191.865 33.4065 178.156 20.0495 169.369 19.698C160.581 19.3465 150.739 27.0795 141.952 30.946C133.164 34.8125 121.718 41.1395 114.183 41.1395C109.662 41.1395 89.0185 31.4708 72.2505 27.3419C55.4825 23.213 28.417 40.4365 23.496 39.7335C18.575 39.0305 3.51413 26.178 0.5 31.2468C0.5 25.5698 0.5 21.7851 0.5 20.6024Z" fill="#FEDD64"/>
</svg>
