<svg width="319" height="51" viewBox="0 0 319 51" fill="none" xmlns="http://www.w3.org/2000/svg">
<path d="M30.1843 19.119C15.0777 13.7238 6.3617 25.6797 0.402754 30.1252L0.325928 21.7397C1.17721 21.1721 3.50403 19.5263 6.00112 17.4833C9.12247 14.9294 25.8643 5.93125 32.9583 7.35004C40.0523 8.76884 63.7681 25.5378 75.4022 32.348C87.0364 39.1582 101.908 38.7736 120.068 37.3548C138.229 35.936 163.394 21.7568 169.92 17.5005C176.447 13.2441 186.577 0.74146 200.944 0.741461C212.264 0.741461 217.937 5.631 221.175 8.00489C224.411 10.378 252.304 22.3072 258.263 24.0097C264.222 25.7123 274.162 21.0762 282.68 22.464C295.912 24.6201 317.128 28.4041 318.988 28.4041C318.988 30.6357 318.855 33.9242 318.828 36.5995C311.166 37.167 294.301 37.2329 287.491 36.7789C278.978 36.2114 276.661 33.2074 271.458 32.607C264.08 31.7558 238.4 24.0097 229.036 19.1858L228.707 19.0162C219.368 14.2048 206.54 7.59516 198.407 8.43651C190.178 9.28779 172.742 25.7968 163.662 32.607C154.581 39.4173 133.522 48.6017 120.469 50.3043C107.416 52.0068 91.9802 50.9669 76.0897 42.1703C60.1992 33.3738 39.8082 22.5561 30.1843 19.119Z" fill="#FEDD64"/>
</svg>
