<svg width="319" height="53" viewBox="0 0 319 53" fill="none" xmlns="http://www.w3.org/2000/svg">
<path d="M28.4181 16.0645C20.2458 15.8374 6.28488 24.6718 0.325928 29.1174V21.7397C1.17721 21.1721 3.50403 19.5263 6.00112 17.4833C9.12247 14.9294 25.8643 8.40297 32.9583 9.82176C40.0523 11.2406 63.8881 27.9824 75.5222 34.7926C87.1563 41.6028 102.196 42.7379 120.356 41.3191C138.517 39.9003 163.488 19.1858 170.014 14.9294C176.541 10.673 186.577 0.74146 200.944 0.741461C212.264 0.741461 223.361 9.538 226.198 12.3756C229.036 15.2132 252.304 22.3072 258.263 24.0097C264.222 25.7123 274.149 25.7432 282.667 27.1311C295.899 29.2871 317.128 28.4041 318.988 28.4041C318.988 30.6357 319.015 32.9686 318.988 35.6439C311.326 36.2114 294.301 37.2329 287.491 36.7789C278.978 36.2114 269.142 31.9879 263.938 31.3875C256.561 30.5362 238.4 24.0097 229.036 19.1858C219.672 14.3619 205.768 8.68672 197.539 9.538C189.31 10.3893 172.852 24.2935 163.771 31.1037C154.691 37.9139 134.26 50.6831 121.207 52.3857C108.155 54.0882 91.9802 50.9669 76.0897 42.1703C60.1992 33.3738 38.6335 16.3482 28.4181 16.0645Z" fill="#FEDD64"/>
</svg>
