<svg width="319" height="44" viewBox="0 0 319 44" fill="none" xmlns="http://www.w3.org/2000/svg">
<path d="M34.9321 26.7727C19.8255 21.3775 6.3617 21.6797 0.402754 26.1252L0.325928 17.7397C1.17721 17.1721 3.50403 15.5263 6.00112 13.4833C9.12247 10.9294 18.6662 9.16825 25.7602 10.587C32.8542 12.0058 64.1936 17.8044 75.8277 24.6146C87.4619 31.4248 106.116 27.8678 124.277 26.449C142.437 25.0302 163.394 17.7569 169.92 13.5005C176.447 9.24407 192.564 0.120346 206.931 0.120346C218.252 0.120346 231.102 6.48669 234.339 8.86058C237.575 11.2337 261.291 14.6034 267.25 16.306C273.209 18.0085 281.392 24.7374 289.91 26.1252C303.142 28.2812 317.128 24.4041 318.988 24.4041C318.988 26.6357 318.855 29.9242 318.828 32.5995C311.166 33.167 294.301 33.2329 287.491 32.7789C278.978 32.2114 268.029 24.2439 262.826 23.6434C255.448 22.7922 238.4 20.0097 229.036 15.1858C219.672 10.3619 216.131 6.71446 207.902 7.56573C199.673 8.41701 172.742 21.7968 163.662 28.607C154.581 35.4173 140.243 40.3925 127.19 42.0951C114.137 43.7976 101.941 43.3899 92.6608 40.6923C75.2199 35.6223 44.556 30.2098 34.9321 26.7727Z" fill="#FEDD64"/>
</svg>
