<svg width="319" height="51" viewBox="0 0 319 51" fill="none" xmlns="http://www.w3.org/2000/svg">
<path d="M28.223 21.7855C20.0507 21.5585 6.28488 24.6718 0.325928 29.1174V21.7397C1.17721 21.1721 3.50403 19.5263 6.00112 17.4833C9.12247 14.9294 25.8643 5.93125 32.9583 7.35004C40.0523 8.76884 63.7681 25.5378 75.4022 32.348C87.0363 39.1582 102.196 42.7379 120.356 41.3191C138.517 39.9003 163.488 19.1858 170.014 14.9294C176.541 10.673 186.577 0.74146 200.944 0.741461C212.264 0.741461 223.409 8.18862 226.246 11.0262C229.084 13.8638 252.304 22.3072 258.263 24.0097C264.222 25.7123 273.838 24.2054 282.356 25.5933C295.588 27.7493 317.128 28.4041 318.988 28.4041C318.988 30.6357 318.855 33.9242 318.828 36.5995C311.166 37.167 294.301 37.2329 287.491 36.7789C278.978 36.2114 269 33.3153 263.797 32.7149C256.419 31.8637 238.4 24.0097 229.036 19.1858C219.672 14.3619 205.773 9.52751 197.544 10.3788C189.315 11.2301 172.742 25.7968 163.662 32.607C154.581 39.4173 133.522 48.6017 120.469 50.3043C107.416 52.0068 91.9802 50.9669 76.0897 42.1703C60.1992 33.3738 38.4383 22.0693 28.223 21.7855Z" fill="#FEDD64"/>
</svg>
