<svg width="311" height="53" viewBox="0 0 311 53" fill="none" xmlns="http://www.w3.org/2000/svg">
<path d="M9.5 20.8144C7.5 22.4144 2.33333 27.4811 0 29.8144V18.8145C0.5 18.1478 3.1 15.8145 9.5 11.8145C17.5 6.81445 24.3377 6.81445 27.5 6.81445C33 6.81445 45 13.3145 51 17.8145C57 22.3145 69 23.3145 71.5 26.8145C74 30.3145 102 39.3145 110 39.8145C118 40.3145 134 33.3145 138 32.3145C141.2 31.5145 153.333 24.3144 159 20.8144C165.667 16.6478 181.4 7.21444 191 2.81444C203 -2.68556 228 0.814444 237.5 5.31444C247 9.81444 272 17.8144 278.5 20.3144C283.7 22.3144 302.333 24.8144 311 25.8144V38.8144C303.5 40.8144 281 34.3144 267 29.8144C253 25.3144 237 16.8144 233.5 14.3144C230 11.8144 214.022 10.0388 210 10.3145C200 11 189.5 13.2143 184.5 17.5C177.5 23.5 160 36.3145 153 40.8145C146 45.3145 128 50.3145 119.5 52.3145C112.7 53.9145 100 49.9811 94.5 47.8145C89.5 44.8145 77 40.3145 74 36.3145C71 32.3145 59 29.8144 55.5 26.8145C52.463 24.2113 39.5 19 35 16C30.5 13 26.5 14.8144 23.5 14.8144C20.5 14.8144 12 18.8144 9.5 20.8144Z" fill="#FEDD64"/>
</svg>
