<svg width="320" height="55" viewBox="0 0 320 55" fill="none" xmlns="http://www.w3.org/2000/svg">
<path id="honey-wave" fill-rule="evenodd" clip-rule="evenodd" d="M0 29.1561C4.8561 26.1148 15.8744 20.0323 21.0989 20.0323C34.1601 20.0322 52.7473 30.1699 63.2967 35.7455C71.8367 40.2591 80.6782 43.1459 89.9215 42.3349C100.304 41.1522 121.469 35.8469 131.115 30.1698C143.171 23.0735 179.341 1.27779 194.411 0.770894C209.482 0.264 220.683 -0.363209 232.59 7.36031C239.623 11.9222 247.159 16.4841 257.708 21.046C265.746 24.5218 273.181 27.8382 282.826 28.6492C286.007 28.8182 293.476 28.852 297.896 27.6354C303.422 26.1148 317.991 21.5529 320 20.0323C320 25.3038 320 28.9871 320 30.1698C318.134 31.0662 315.374 33.5416 311.962 34.7317C303.964 37.5221 292.897 39.8697 284.333 39.2936C276.798 38.7867 252.684 32.7042 242.637 25.6079C232.59 18.5116 212.998 9.11695 194.411 14.1857C175.824 19.2545 160.754 26.6217 158.242 29.1561C155.73 31.6905 132.531 44.7679 126 45.5C121.479 46.0069 103.485 54.5 95.9498 54.5C91.4286 54.5 68.8226 50.445 54.7567 42.3349C40.6907 34.2248 26.6248 27.6355 21.0989 29.1561C15.573 30.6767 3.01413 34.7318 0 39.8005C0 34.1235 0 30.3388 0 29.1561Z" fill="#FEDD64"/>
</svg>
