<svg width="320" height="53" viewBox="0 0 320 53" fill="none" xmlns="http://www.w3.org/2000/svg">
<path id="honey-wave" fill-rule="evenodd" clip-rule="evenodd" d="M0 27.1561C4.8561 24.1148 16.2135 15 21.438 15C34.4992 15 52.7473 28.1699 63.2967 33.7455C71.8367 38.2591 81.3618 40.3733 90.6051 39.5622C100.987 38.3795 121.469 33.8469 131.115 28.1698C143.171 21.0735 179.231 1.48446 194.301 0.977566C209.372 0.470672 220.683 -2.36321 232.59 5.36031C239.623 9.9222 247.159 14.4841 257.708 19.046C265.746 22.5218 273.181 25.8382 282.826 26.6492C286.007 26.8182 293.232 24.9315 297.653 23.715C303.179 22.1943 317.991 19.5529 320 18.0323C320 23.3038 320 26.9871 320 28.1698C318.134 29.0662 314.845 29.0705 311.433 30.2606C303.435 33.051 287.614 38.7603 279.05 38.1842C271.515 37.6773 251.89 33.2228 241.843 26.1265C231.796 19.0302 212.998 7.11695 194.411 12.1857C175.824 17.2545 162.607 19.9254 157.439 24.404C154.927 26.9384 132.275 45.7202 125.745 46.4524C121.224 46.9592 103.485 52.5 95.9498 52.5C91.4286 52.5 68.8226 48.445 54.7567 40.3349C40.6907 32.2248 26.6248 25.6355 21.0989 27.1561C15.573 28.6767 3.01413 32.7318 0 37.8005C0 32.1235 0 28.3388 0 27.1561Z" fill="#FEDD64"/>
</svg>
