<svg width="321" height="53" viewBox="0 0 321 53" fill="none" xmlns="http://www.w3.org/2000/svg">
<path id="honey-wave" fill-rule="evenodd" clip-rule="evenodd" d="M0.5 29.6024C5.3561 26.5611 16.7135 17.4463 21.938 17.4463C34.9992 17.4463 53.2473 30.6162 63.7967 36.1918C72.3367 40.7054 94.3947 43.5691 103.638 42.758C114.02 41.5753 138.633 29.8056 148.279 24.1285C160.335 17.0322 192.611 1.43642 207.682 0.929526C222.753 0.422632 221.183 0.0831132 233.09 7.80663C240.123 12.3685 250.209 23.4331 260.759 27.995C268.796 31.4708 273.555 29.8445 283.326 29.0955C293.097 28.3465 300.627 24.6421 305.048 23.4255C310.573 21.9049 318.491 21.9992 320.5 20.4786C320.5 25.7501 320.5 29.4334 320.5 30.6162C318.634 31.5125 315.345 31.5168 311.933 32.7069C303.935 35.4973 296.963 42.758 285.715 43.8125C274.467 44.867 252.39 35.6691 242.343 28.5728C232.296 21.4765 217.173 14.9895 203.816 15.6925C190.459 16.3955 180.446 27.7338 172.532 32.916C164.618 38.0983 143.709 38.8915 134.922 42.758C126.134 46.6245 110.47 52.2486 102.935 52.2486C98.4138 52.2485 69.3226 50.8913 55.2567 42.7812C41.1907 34.6712 27.714 29.401 22.793 28.698C17.872 27.995 3.51413 35.1781 0.5 40.2468C0.5 34.5698 0.5 30.7851 0.5 29.6024Z" fill="#FEDD64"/>
</svg>
